#!OML:ASF H:\MichaelJackson\Top Level 1\Subject 1\Session 1\male.ASF
:FULLY-SPECIFIED
:DEGREES
39
root 4.77843 17.0799 -20.2708 10.1472 2.25468 0.0186807
lowerback -8.82669 1.5345 1.39989
upperback -1.20283 1.92107 -0.309677
thorax 3.75581 0.975097 -0.878191
lowerneck -11.4379 -2.84663 -1.58834
upperneck 2.3202 -3.65691 1.66272
head 2.81107 -1.77005 0.60001
rclavicle 1.22377e-015 -1.59028e-014
rhumerus -40.7144 -0.233649 -88.7259
rradius 37.8401
rwrist 12.2589
rhand -24.9777 -20.071
rfingers 7.12502
rthumb 1.53315 -50.0452
lclavicle 1.22377e-015 -1.59028e-014
lhumerus -41.93 -12.3362 92.8017
lradius 42.8925
lwrist 5.53233
lhand -1.32669 18.0232
lfingers 7.12502
lthumb 24.319 46.5005
rfemur -18.4784 1.24663 21.6969
rtibia 29.2002
rfoot -26.5816 -15.5308
rtoes 1.56069
lfemur -21.8876 3.31978 -20.5309
ltibia 30.6437
lfoot -27.0326 -1.4512
ltoes 45.7939
40
root 4.77544 17.075 -20.2671 10.1589 2.19758 -0.000167955
lowerback -8.77907 1.53844 1.44264
upperback -1.23237 1.92302 -0.308079
thorax 3.7 0.976225 -0.902026
lowerneck -11.4264 -2.83949 -1.64259
upperneck 2.27684 -3.64129 1.6965
head 2.79596 -1.76176 0.621806
rclavicle -3.17186e-014 6.06293e-015
rhumerus -40.8046 -0.050067 -88.8013
rradius 37.9605
rwrist 12.0704
rhand -24.9167 -20.123
rfingers 7.12502
rthumb 1.59199 -50.0968
lclavicle -3.17186e-014 6.06293e-015
lhumerus -41.9792 -12.2222 92.7231
lradius 42.9359
lwrist 5.57082
lhand -1.23368 17.997
lfingers 7.12502
lthumb 24.4082 46.4622
rfemur -18.4965 1.01879 21.7398
rtibia 29.2592
rfoot -26.846 -15.3878
rtoes 0.957203
lfemur -22.0989 3.73894 -20.5596
ltibia 31.021
lfoot -26.3933 -1.80014
ltoes 45.6443
41
root 4.77246 17.0693 -20.2643 10.1753 2.15806 -0.0372956
lowerback -8.72711 1.54554 1.50483
upperback -1.26232 1.92729 -0.301092
thorax 3.6419 0.978681 -0.931053
lowerneck -11.4173 -2.83871 -1.69453
upperneck 2.22926 -3.63398 1.72365
head 2.77977 -1.75781 0.640519
rclavicle 1.32751e-014 -3.97569e-015
rhumerus -40.8951 0.135713 -88.8701
rradius 38.1177
rwrist 11.811
rhand -24.8034 -20.2175
rfingers 7.12502
rthumb 1.70146 -50.1905
lclavicle 1.32751e-014 -3.97569e-015
lhumerus -42.0207 -12.1323 92.6503
lradius 42.9762
lwrist 5.60938
lhand -1.13032 17.9422
lfingers 7.12502
lthumb 24.5073 46.3941
rfemur -18.5255 0.768921 21.804
rtibia 29.3219
rfoot -27.0884 -15.2457
rtoes 0.254203
lfemur -22.3838 4.20455 -20.5755
ltibia 31.5019
lfoot -25.6853 -2.19286
ltoes 45.4129
42
root 4.76946 17.0624 -20.2621 10.1915 2.13895 -0.0962227
lowerback -8.66315 1.55405 1.5898
upperback -1.29261 1.93136 -0.28729
thorax 3.57727 0.981211 -0.966166
lowerneck -11.4134 -2.84239 -1.74263
upperneck 2.18001 -3.6326 1.74287
head 2.76382 -1.75702 0.655559
rclavicle 1.83565e-014 1.19271e-014
rhumerus -40.9885 0.332118 -88.9358
rradius 38.3054
rwrist 11.5109
rhand -24.6546 -20.3337
rfingers 7.12502
rthumb 1.84512 -50.3055
lclavicle 1.83565e-014 1.19271e-014
lhumerus -42.0565 -12.0638 92.5823
lradius 43.0145
lwrist 5.64901
lhand -1.02116 17.8735
lfingers 7.12502
lthumb 24.6119 46.3112
rfemur -18.5592 0.501323 21.8944
rtibia 29.3882
rfoot -27.3101 -15.1132
rtoes -0.534706
lfemur -22.7417 4.68603 -20.5702
ltibia 32.1013
lfoot -24.9226 -2.58612
ltoes 45.0709
43
root 4.76649 17.0542 -20.2607 10.2072 2.13275 -0.181669
lowerback -8.58914 1.56783 1.69967
upperback -1.32122 1.94016 -0.264865
thorax 3.50948 0.986281 -1.00602
lowerneck -11.4137 -2.85093 -1.78837
upperneck 2.12316 -3.63753 1.75677
head 2.74597 -1.75952 0.668056
rclavicle -2.62955e-014 3.08116e-015
rhumerus -41.0816 0.545144 -88.9972
rradius 38.5298
rwrist 11.1576
rhand -24.4555 -20.4827
rfingers 7.12502
rthumb 2.03744 -50.4527
lclavicle -2.62955e-014 3.08116e-015
lhumerus -42.0846 -12.0184 92.5212
lradius 43.0511
lwrist 5.68761
lhand -0.912554 17.7883
lfingers 7.12502
lthumb 24.716 46.2118
rfemur -18.597 0.211047 22.0167
rtibia 29.4557
rfoot -27.5261 -14.9766
rtoes -1.38701
lfemur -23.1765 5.17589 -20.5393
ltibia 32.8302
lfoot -24.123 -2.95093
ltoes 44.5783
44
root 4.76358 17.045 -20.2598 10.2193 2.13383 -0.298894
lowerback -8.5036 1.58865 1.83777
upperback -1.34561 1.95582 -0.231756
thorax 3.44048 0.994974 -1.05015
lowerneck -11.4198 -2.8626 -1.82813
upperneck 2.05572 -3.6467 1.76173
head 2.72532 -1.76436 0.67632
rclavicle 2.4786e-014 1.2921e-015
rhumerus -41.1704 0.784164 -89.0562
rradius 38.785
rwrist 10.7734
rhand -24.2276 -20.6493
rfingers 7.12502
rthumb 2.25754 -50.6171
lclavicle 2.4786e-014 1.2921e-015
lhumerus -42.1004 -11.9911 92.4668
lradius 43.0845
lwrist 5.72701
lhand -0.804555 17.7058
lfingers 7.12502
lthumb 24.8195 46.1151
rfemur -18.6328 -0.103336 22.1762
rtibia 29.5199
rfoot -27.7514 -14.8339
rtoes -2.26906
lfemur -23.6879 5.68572 -20.4796
ltibia 33.6934
lfoot -23.3037 -3.28815
ltoes 43.9275
45
root 4.76098 17.035 -20.2593 10.2217 2.13524 -0.452799
lowerback -8.41227 1.62168 2.00541
upperback -1.35706 1.98493 -0.185054
thorax 3.38272 1.0107 -1.09523
lowerneck -11.4273 -2.8798 -1.85719
upperneck 1.96601 -3.66369 1.75367
head 2.69688 -1.77345 0.678102
rclavicle -1.19271e-015 7.15625e-015
rhumerus -41.243 1.05085 -89.108
rradius 39.0654
rwrist 10.3706
rhand -23.974 -20.8294
rfingers 7.12502
rthumb 2.50251 -50.7944
lclavicle -1.19271e-015 7.15625e-015
lhumerus -42.0941 -11.9832 92.4243
lradius 43.1147
lwrist 5.76563
lhand -0.708473 17.6463
lfingers 7.12502
lthumb 24.9116 46.0428
rfemur -18.656 -0.455504 22.3779
rtibia 29.5727
rfoot -28.0047 -14.6752
rtoes -3.17502
lfemur -24.2677 6.23353 -20.3887
ltibia 34.6875
lfoot -22.4717 -3.5912
ltoes 43.1308
46
root 4.75867 17.0245 -20.2591 10.2095 2.12616 -0.637762
lowerback -8.29402 1.6631 2.2019
upperback -1.36327 2.02337 -0.12866
thorax 3.31649 1.03122 -1.14615
lowerneck -11.4374 -2.89593 -1.88038
upperneck 1.86041 -3.67951 1.73962
head 2.66323 -1.7821 0.677037
rclavicle 6.08778e-015 1.2921e-015
rhumerus -41.308 1.36562 -89.165
rradius 39.3624
rwrist 9.9674
rhand -23.7092 -21.0086
rfingers 7.12502
rthumb 2.75823 -50.9706
lclavicle 6.08778e-015 1.2921e-015
lhumerus -42.0816 -11.9719 92.3837
lradius 43.1455
lwrist 5.79886
lhand -0.626398 17.6348
lfingers 7.12502
lthumb 24.9903 46.0204
rfemur -18.6568 -0.840734 22.6136
rtibia 29.6061
rfoot -28.2864 -14.5
rtoes -4.10641
lfemur -24.9014 6.80093 -20.2719
ltibia 35.8012
lfoot -21.6394 -3.82981
ltoes 42.1739
47
root 4.75687 17.0142 -20.259 10.1807 2.09478 -0.856228
lowerback -8.13673 1.71284 2.43425
upperback -1.36818 2.07115 -0.0634272
thorax 3.23136 1.05645 -1.20823
lowerneck -11.4524 -2.90748 -1.90006
upperneck 1.74074 -3.68926 1.72182
head 2.62542 -1.7878 0.674534
rclavicle -5.33613e-015 -5.1684e-015
rhumerus -41.3654 1.7402 -89.2348
rradius 39.6591
rwrist 9.61149
rhand -23.4678 -21.1694
rfingers 7.12502
rthumb 2.99129 -51.1282
lclavicle -5.33613e-015 -5.1684e-015
lhumerus -42.0686 -11.9425 92.3409
lradius 43.1767
lwrist 5.82689
lhand -0.552246 17.6649
lfingers 7.12502
lthumb 25.0613 46.0406
rfemur -18.6299 -1.25481 22.8828
rtibia 29.6127
rfoot -28.5984 -14.2994
rtoes -5.0555
lfemur -25.5815 7.43278 -20.1359
ltibia 37.0164
lfoot -20.8047 -4.03411
ltoes 41.0958
48
root 4.75574 17.0041 -20.2588 10.131 2.0373 -1.10028
lowerback -7.94771 1.77147 2.69255
upperback -1.36441 2.13017 0.00924969
thorax 3.13893 1.08735 -1.27691
lowerneck -11.4685 -2.91483 -1.9124
upperneck 1.59747 -3.69391 1.6988
head 2.5794 -1.79105 0.669478
rclavicle 5.37961e-015 9.24349e-015
rhumerus -41.4018 2.17127 -89.3128
rradius 39.946
rwrist 9.31406
rhand -23.2481 -21.3217
rfingers 7.12502
rthumb 3.20351 -51.2773
lclavicle 5.37961e-015 9.24349e-015
lhumerus -42.0465 -11.8923 92.2972
lradius 43.2038
lwrist 5.84661
lhand -0.495559 17.7416
lfingers 7.12502
lthumb 25.1156 46.1097
rfemur -18.568 -1.69214 23.1739
rtibia 29.59
rfoot -28.9302 -14.0732
rtoes -6.03304
lfemur -26.2857 8.07662 -19.9831
ltibia 38.3107
lfoot -19.9762 -4.14447
ltoes 39.8936
49
root 4.75526 16.9948 -20.2582 10.0587 1.94635 -1.3605
lowerback -7.72768 1.8387 2.96344
upperback -1.35035 2.20157 0.0885561
thorax 3.041 1.12436 -1.34551
lowerneck -11.4801 -2.91716 -1.92323
upperneck 1.42657 -3.69189 1.67599
head 2.52309 -1.79098 0.664832
rclavicle -1.11754e-014 -2.48481e-015
rhumerus -41.4103 2.65759 -89.3952
rradius 40.2132
rwrist 9.07362
rhand -23.0497 -21.4612
rfingers 7.12502
rthumb 3.39514 -51.4139
lclavicle -1.11754e-014 -2.48481e-015
lhumerus -42.012 -11.8115 92.2526
lradius 43.2193
lwrist 5.85246
lhand -0.439228 17.8269
lfingers 7.12502
lthumb 25.1696 46.1874
rfemur -18.4694 -2.12818 23.4728
rtibia 29.5361
rfoot -29.2551 -13.8263
rtoes -7.04929
lfemur -26.9993 8.73126 -19.8251
ltibia 39.6573
lfoot -19.1358 -4.14728
ltoes 38.554
50
root 4.75553 16.9864 -20.2571 9.96981 1.816 -1.62659
lowerback -7.47518 1.91168 3.24223
upperback -1.3324 2.2827 0.167963
thorax 2.9302 1.16597 -1.41877
lowerneck -11.4919 -2.9117 -1.9327
upperneck 1.2384 -3.67981 1.65799
head 2.46094 -1.78567 0.662196
rclavicle -1.24054e-014 -4.96962e-015
rhumerus -41.3899 3.19579 -89.4875
rradius 40.4428
rwrist 8.91685
rhand -22.9064 -21.554
rfingers 7.12502
rthumb 3.53348 -51.5044
lclavicle -1.24054e-014 -4.96962e-015
lhumerus -41.9732 -11.6868 92.1977
lradius 43.2201
lwrist 5.83876
lhand -0.401304 17.9341
lfingers 7.12502
lthumb 25.2059 46.2895
rfemur -18.3422 -2.54559 23.7664
rtibia 29.4548
rfoot -29.5431 -13.5633
rtoes -8.1308
lfemur -27.7147 9.39123 -19.6751
ltibia 41.0291
lfoot -18.2797 -4.05611
ltoes 37.2568
51
root 4.75623 16.9792 -20.2549 9.86056 1.66147 -1.88377
lowerback -7.20558 1.98645 3.50325
upperback -1.30373 2.36985 0.247301
thorax 2.82106 1.21035 -1.48238
lowerneck -11.4977 -2.9023 -1.94035
upperneck 1.03124 -3.66299 1.64578
head 2.39143 -1.77779 0.661557
rclavicle 2.77056e-015 -8.94531e-015
rhumerus -41.3286 3.76308 -89.5728
rradius 40.6452
rwrist 8.78406
rhand -22.6977 -21.6551
rfingers 7.12502
rthumb 3.73506 -51.6021
lclavicle 2.77056e-015 -8.94531e-015
lhumerus -41.9232 -11.5201 92.1352
lradius 43.1973
lwrist 5.79832
lhand -0.365032 18.0243
lfingers 7.12502
lthumb 25.2407 46.3748
rfemur -18.18 -2.91553 24.0399
rtibia 29.3524
rfoot -29.7626 -13.3163
rtoes -9.26394
lfemur -28.4162 10.0629 -19.5476
ltibia 42.3987
lfoot -17.4205 -3.91739
ltoes 36.0798
52
root 4.75746 16.9733 -20.2512 9.74236 1.48435 -2.12269
lowerback -6.94754 2.06584 3.73284
upperback -1.26052 2.46639 0.324843
thorax 2.73317 1.25944 -1.52919
lowerneck -11.4933 -2.89241 -1.9435
upperneck 0.799838 -3.64635 1.63912
head 2.31204 -1.7698 0.662147
rclavicle 2.79044e-014 1.48095e-014
rhumerus -41.2138 4.33805 -89.6396
rradius 40.8063
rwrist 8.68562
rhand -22.5212 -21.722
rfingers 7.12502
rthumb 3.90543 -51.666
lclavicle 2.79044e-014 1.48095e-014
lhumerus -41.8528 -11.3161 92.0665
lradius 43.1462
lwrist 5.73202
lhand -0.309286 18.0932
lfingers 7.12502
lthumb 25.2941 46.4362
rfemur -17.9975 -3.22143 24.2836
rtibia 29.2364
rfoot -29.8799 -13.1007
rtoes -10.4683
lfemur -29.1037 10.729 -19.4522
ltibia 43.7396
lfoot -16.5631 -3.72789
ltoes 35.1619
53
root 4.75894 16.9686 -20.2457 9.6249 1.29385 -2.3359
lowerback -6.70188 2.14327 3.92549
upperback -1.21579 2.56394 0.395594
thorax 2.65294 1.30878 -1.56233
lowerneck -11.4805 -2.88003 -1.94474
upperneck 0.562382 -3.62741 1.6458
head 2.22955 -1.76022 0.666938
rclavicle 1.27471e-014 -4.87022e-015
rhumerus -41.0557 4.91156 -89.6926
rradius 40.9249
rwrist 8.60768
rhand -22.2418 -21.8073
rfingers 7.12502
rthumb 4.17524 -51.7462
lclavicle 1.27471e-014 -4.87022e-015
lhumerus -41.7844 -11.0629 91.9806
lradius 43.0721
lwrist 5.64144
lhand -0.217949 18.1296
lfingers 7.12502
lthumb 25.3816 46.4602
rfemur -17.8055 -3.44345 24.4931
rtibia 29.1126
rfoot -29.8687 -12.9404
rtoes -11.7412
lfemur -29.779 11.3778 -19.3959
ltibia 45.0263
lfoot -15.7392 -3.53342
ltoes 34.5715
